<svg xmlns="http://www.w3.org/2000/svg" viewBox="0 0 439.27 440.93"><defs><style>.cls-1{isolation:isolate;}.cls-2{fill:#e0edff;}.cls-3{fill:#e8e8e8;}.cls-4{fill:#76acea;}.cls-5{fill:#8ec0fd;}.cls-6{fill:#bdf;}.cls-14,.cls-7,.cls-9{opacity:0.5;}.cls-8{fill:#def0ff;}.cls-19,.cls-26,.cls-28,.cls-9{mix-blend-mode:soft-light;}.cls-10{fill:#f2f3f4;}.cls-11{fill:#69a7fe;}.cls-12{fill:#dbdbdb;}.cls-13{fill:#fff;}.cls-14,.cls-15{fill:#eaeaea;}.cls-16{fill:#e2e2e2;}.cls-17{fill:#dc433e;}.cls-18{fill:#fdcd55;}.cls-20{fill:#d8a03d;}.cls-21{fill:#f5b945;}.cls-22{fill:#e5e5e5;}.cls-23{fill:#1947b6;}.cls-24{fill:#f4b799;}.cls-25{fill:#f99746;}.cls-26{opacity:0.3;}.cls-27{fill:#002671;}.cls-28{opacity:0.6;}.cls-29{fill:#0e1c4d;}</style></defs><g class="cls-1"><g id="BACKGROUND"><path class="cls-2" d="M85.73,40.86C75.13,46.26,65,53.13,58.34,62.69c-12.44,17.88-10.53,41.89-3,62.26s20,38.8,28.07,59c17.54,43.88,12.36,95.34-13.57,134.9-8.54,13-19.64,26.34-18.32,41.72,1.7,19.68,22.91,32.36,42.74,37.9,39.93,11.17,84.34,6.37,120.41-13,18.44-9.92,35.34-23.67,56.11-27.65,47.34-9.08,90.27,35.31,138.6,34.59,40.72-.62,74.93-36.43,78.8-75.2s-18.31-77.35-50.53-101.44c-25.83-19.3-57.15-30.36-85.62-45.86C298.92,141,290.55,85.65,243,53.5,198,23.05,134.71,15.94,85.73,40.86Z" transform="translate(-49.34 -25.76)"/></g><g id="OBJECTS"><ellipse class="cls-3" cx="178.35" cy="387.68" rx="109.28" ry="12.54"/><rect class="cls-4" x="96.93" y="83.22" width="163.16" height="309.32" rx="16.45"/><rect class="cls-5" x="104.58" y="83.22" width="163.16" height="309.32" rx="16.45"/><rect class="cls-6" x="113.93" y="102.77" width="146.16" height="257.48"/><circle class="cls-6" cx="188.71" cy="375.26" r="11.05"/><rect class="cls-6" x="161.51" y="90.66" width="57.57" height="5.52" rx="2.76"/><g class="cls-7"><rect class="cls-8" x="121.57" y="115.51" width="130.86" height="21.24"/><rect class="cls-8" x="121.57" y="146.96" width="130.86" height="21.24"/><rect class="cls-8" x="121.57" y="266.49" width="130.86" height="21.24"/><rect class="cls-8" x="121.57" y="297.93" width="130.86" height="21.24"/><rect class="cls-8" x="121.57" y="328.81" width="130.86" height="21.24"/><rect class="cls-8" x="121.57" y="178.4" width="61.18" height="78.4"/><rect class="cls-8" x="190.12" y="178.4" width="61.18" height="13.22"/><rect class="cls-8" x="190.12" y="200.11" width="61.18" height="13.22"/><rect class="cls-8" x="190.12" y="221.83" width="61.18" height="13.22"/><rect class="cls-8" x="190.12" y="243.55" width="61.18" height="13.22"/></g><rect class="cls-9" x="141.47" y="150.44" width="185.46" height="95.27"/><rect class="cls-10" x="145.83" y="144.9" width="185.46" height="95.27"/><rect class="cls-11" x="252.01" y="144.9" width="80.25" height="95.27"/><circle class="cls-9" cx="341.13" cy="221.89" r="27.93" transform="translate(-90.81 57.48) rotate(-13.12)"/><circle class="cls-12" cx="342.82" cy="219.71" r="27.93" transform="translate(-106.82 119.36) rotate(-22.1)"/><circle class="cls-13" cx="342.82" cy="219.71" r="24.49" transform="translate(-106.88 119.7) rotate(-22.15)"/><path class="cls-14" d="M319.61,221.35a24.49,24.49,0,0,1,42.8-16.26,24.49,24.49,0,1,0-38,30.88A24.39,24.39,0,0,1,319.61,221.35Z" transform="translate(-49.34 -25.76)"/><g class="cls-7"><path class="cls-15" d="M340.9,235.44a2.47,2.47,0,0,1-2.09-1.16l-8.56-13.66a2.47,2.47,0,0,1,4.18-2.62l6.38,10.19,11.8-20.49a2.46,2.46,0,1,1,4.27,2.46L343,234.21a2.48,2.48,0,0,1-2.09,1.23Z" transform="translate(-49.34 -25.76)"/></g><path class="cls-5" d="M341.79,234.4a2.47,2.47,0,0,1-2.09-1.16l-8.56-13.66a2.47,2.47,0,0,1,4.18-2.62l6.38,10.19,11.8-20.49a2.46,2.46,0,1,1,4.27,2.46l-13.84,24a2.51,2.51,0,0,1-2.09,1.23Z" transform="translate(-49.34 -25.76)"/><circle class="cls-11" cx="167.52" cy="169.06" r="13.57"/><path class="cls-13" d="M216.49,196.74h0a1,1,0,0,1-1-1V185.4a1,1,0,0,1,1-1h0a1,1,0,0,1,1,1v10.39A1,1,0,0,1,216.49,196.74Z" transform="translate(-49.34 -25.76)"/><path class="cls-13" d="M215.44,195.81h0a1,1,0,0,1,1-1h7.15a1,1,0,0,1,1,1h0a1,1,0,0,1-1,1h-7.15A1,1,0,0,1,215.44,195.81Z" transform="translate(-49.34 -25.76)"/><rect class="cls-16" x="188.92" y="162.33" width="57.05" height="4.46"/><rect class="cls-16" x="188.92" y="170.65" width="57.05" height="4.46"/><path class="cls-11" d="M217.32,220.87a11.28,11.28,0,0,0-11.27,11.28c0,6.23,11.16,25.1,11.27,25.1s11.28-18.87,11.28-25.1A11.28,11.28,0,0,0,217.32,220.87Zm0,16.89a6.62,6.62,0,1,1,6.62-6.62A6.62,6.62,0,0,1,217.32,237.76Z" transform="translate(-49.34 -25.76)"/><rect class="cls-16" x="188.92" y="207.69" width="57.05" height="4.46"/><rect class="cls-16" x="188.92" y="216.01" width="36.96" height="4.46"/><rect class="cls-9" x="48.77" y="256.52" width="185.46" height="95.27"/><rect class="cls-10" x="53.13" y="250.97" width="185.46" height="95.27"/><rect class="cls-17" x="159.3" y="250.97" width="80.25" height="95.27"/><path class="cls-13" d="M251.36,300.41a15.2,15.2,0,0,0-15.2,15.2c0,8.4,15.05,33.85,15.2,33.85s15.21-25.45,15.21-33.85A15.2,15.2,0,0,0,251.36,300.41Zm0,22.76a8.92,8.92,0,1,1,8.92-8.92A8.91,8.91,0,0,1,251.36,323.17Z" transform="translate(-49.34 -25.76)"/><rect class="cls-16" x="60.95" y="281.08" width="87.06" height="4.46"/><rect class="cls-16" x="60.95" y="289.4" width="56.41" height="4.46"/><rect class="cls-16" x="60.95" y="301.09" width="87.06" height="4.46"/><rect class="cls-16" x="60.95" y="309.41" width="56.41" height="4.46"/><rect class="cls-16" x="60.95" y="323.27" width="87.06" height="4.46"/><rect class="cls-16" x="60.95" y="331.59" width="56.41" height="4.46"/><path class="cls-16" d="M112.22,291.25a3.76,3.76,0,0,1,.87-2.67,3.91,3.91,0,0,1,5.06,0,3.72,3.72,0,0,1,.88,2.67v7.42a3.7,3.7,0,0,1-.88,2.66,3.91,3.91,0,0,1-5.06,0,3.74,3.74,0,0,1-.87-2.66Zm2.24,7.56a1.51,1.51,0,0,0,.32,1.09,1.28,1.28,0,0,0,1.69,0,1.51,1.51,0,0,0,.32-1.09V291.1a1.53,1.53,0,0,0-.32-1.09,1.28,1.28,0,0,0-1.69,0,1.53,1.53,0,0,0-.32,1.09Z" transform="translate(-49.34 -25.76)"/><path class="cls-16" d="M127.07,298.55a4,4,0,0,1-.84,2.76,3.29,3.29,0,0,1-2.59.95,3.22,3.22,0,0,1-2.5-.93,3.82,3.82,0,0,1-.84-2.66v-.37h2.12v.51a1.51,1.51,0,0,0,.31,1.09,1.12,1.12,0,0,0,.85.32,1.16,1.16,0,0,0,.92-.37,2.17,2.17,0,0,0,.32-1.38v-2.61a2.1,2.1,0,0,1-2.08,1.26,2.15,2.15,0,0,1-1.86-.84,4,4,0,0,1-.63-2.42v-2.61a3.77,3.77,0,0,1,.88-2.67,3.91,3.91,0,0,1,5.06,0,3.72,3.72,0,0,1,.88,2.67Zm-3.41-3.47a1.16,1.16,0,0,0,.85-.32,1.51,1.51,0,0,0,.31-1.09V291.1a1.48,1.48,0,0,0-.31-1.08,1.35,1.35,0,0,0-1.7,0,1.48,1.48,0,0,0-.31,1.08v2.57a1.51,1.51,0,0,0,.31,1.09A1.16,1.16,0,0,0,123.66,295.08Z" transform="translate(-49.34 -25.76)"/><path class="cls-16" d="M130.72,292.16v2.17h-2.16v-2.17Zm0,7.78v2.16h-2.16v-2.16Z" transform="translate(-49.34 -25.76)"/><path class="cls-16" d="M132.17,291.25a3.72,3.72,0,0,1,.88-2.67,3.89,3.89,0,0,1,5,0,3.72,3.72,0,0,1,.88,2.67v7.42a3.7,3.7,0,0,1-.88,2.66,3.89,3.89,0,0,1-5,0,3.7,3.7,0,0,1-.88-2.66Zm2.24,7.56a1.51,1.51,0,0,0,.32,1.09,1.28,1.28,0,0,0,1.69,0,1.51,1.51,0,0,0,.32-1.09V291.1a1.53,1.53,0,0,0-.32-1.09,1.28,1.28,0,0,0-1.69,0,1.53,1.53,0,0,0-.32,1.09Z" transform="translate(-49.34 -25.76)"/><path class="cls-16" d="M142.45,297.49v1.32a1.47,1.47,0,0,0,.32,1.08,1.31,1.31,0,0,0,1.69,0,1.47,1.47,0,0,0,.32-1.08v-3.14a1.53,1.53,0,0,0-.32-1.09,1.28,1.28,0,0,0-1.69,0,1.53,1.53,0,0,0-.32,1.09v.43h-2.12l.41-8.28h5.91v2h-3.89l-.19,3.4a2.14,2.14,0,0,1,2-1,2.19,2.19,0,0,1,1.87.84,4.07,4.07,0,0,1,.62,2.43v3.18a3.78,3.78,0,0,1-.85,2.66,3.83,3.83,0,0,1-5,0,3.82,3.82,0,0,1-.84-2.66v-1.18Z" transform="translate(-49.34 -25.76)"/><path class="cls-9" d="M340.1,108.88l-2-3.87-.71-1.43,5.88-12.79-16-7.34L320,68.72a2.34,2.34,0,0,0-2.61-1.2l-16,4-16.14-7.41L279.27,77l-1.29.32-4.23,1.06A1.8,1.8,0,0,0,272.34,80L253,122.09h0l-.06.11-.44,1h0l-.43,1a2,2,0,0,0,.84,3.16l63.73,29.27a2.09,2.09,0,0,0,2.76-.8h0l1.2-2.62h0L340,110.82l0,0A1.84,1.84,0,0,0,340.1,108.88Z" transform="translate(-49.34 -25.76)"/><path class="cls-18" d="M342.33,109.44,278.6,80.17a2,2,0,0,1,.14-3.75L283,75.36l3.43-.85,35.93-9a2.34,2.34,0,0,1,2.61,1.2l16.6,33.1,1.6,3.19,1.94,3.87A2,2,0,0,1,342.33,109.44Z" transform="translate(-49.34 -25.76)"/><polygon class="cls-19" points="293.8 77.25 289.06 87.58 228.88 59.94 233.63 49.6 237.06 48.74 292.2 74.06 293.8 77.25"/><rect class="cls-20" x="264.05" y="91.12" width="74.39" height="47.74" transform="translate(26.12 -140.98) rotate(24.66)"/><path class="cls-10" d="M274.13,72.58h63.94a0,0,0,0,1,0,0v59.05a4,4,0,0,1-4,4h-56a4,4,0,0,1-4-4V72.58a0,0,0,0,1,0,0Z" transform="translate(22.01 -143.99) rotate(24.66)"/><rect class="cls-16" x="293.63" y="79.69" width="46.94" height="3.67" transform="translate(13.6 -150.65) rotate(24.66)"/><rect class="cls-16" x="291.53" y="82.46" width="30.41" height="3.67" transform="translate(13.81 -146.07) rotate(24.66)"/><rect class="cls-16" x="287.45" y="93.17" width="46.94" height="3.67" transform="translate(18.66 -146.83) rotate(24.66)"/><rect class="cls-16" x="285.34" y="95.94" width="30.41" height="3.67" transform="translate(18.87 -142.26) rotate(24.66)"/><polygon class="cls-21" points="228.06 52.01 207.43 96.94 275.04 127.99 295.67 83.06 290.74 80.8 251.18 90.81 232.64 54.12 228.06 52.01"/><polygon class="cls-9" points="290.74 80.8 252.44 87.72 254.56 89.91 290.74 80.8"/><polygon class="cls-9" points="232.86 54.22 252.57 87.78 249.53 87.6 232.86 54.22"/><polygon class="cls-9" points="256.58 89.44 276.24 125.37 275.04 127.99 245.18 114.28 256.58 89.44"/><polygon class="cls-9" points="248.69 85.82 208.63 94.33 207.43 96.95 237.29 110.66 248.69 85.82"/><path class="cls-18" d="M258,121.52l43.59-10.89a2.33,2.33,0,0,1,2.61,1.2L324.37,152a2,2,0,0,1-2.75,2.55l-63.73-29.26A2,2,0,0,1,258,121.52Z" transform="translate(-49.34 -25.76)"/><path class="cls-9" d="M174,90.5h-8.53v-4a3.36,3.36,0,0,0-3.35-3.35h0a3.36,3.36,0,0,0-3.35,3.35v4H104.24v-4a3.35,3.35,0,1,0-6.7,0v4H89.46a8,8,0,0,0-8,8v64a8,8,0,0,0,8,8H174a8,8,0,0,0,8-8v-64A8,8,0,0,0,174,90.5Z" transform="translate(-49.34 -25.76)"/><rect class="cls-10" x="36.11" y="60.75" width="100.5" height="79.95" rx="8"/><path class="cls-22" d="M178,164.9H93.45a8,8,0,0,1-8-8v1.56a8,8,0,0,0,8,8H178a8,8,0,0,0,8-8v-1.56A8,8,0,0,1,178,164.9Z" transform="translate(-49.34 -25.76)"/><path class="cls-17" d="M186,94.51v9.87H85.45V94.51a8,8,0,0,1,8-8H178A8,8,0,0,1,186,94.51Z" transform="translate(-49.34 -25.76)"/><rect class="cls-12" x="42.7" y="84.2" width="9.63" height="9.63"/><rect class="cls-12" x="58.33" y="84.2" width="9.63" height="9.63"/><rect class="cls-12" x="73.96" y="84.2" width="9.63" height="9.63"/><rect class="cls-12" x="89.6" y="84.2" width="9.63" height="9.63"/><rect class="cls-12" x="105.23" y="84.2" width="9.63" height="9.63"/><rect class="cls-12" x="120.86" y="84.2" width="9.63" height="9.63"/><rect class="cls-12" x="42.7" y="97.8" width="9.63" height="9.63"/><rect class="cls-12" x="58.33" y="97.8" width="9.63" height="9.63"/><rect class="cls-12" x="73.96" y="97.8" width="9.63" height="9.63"/><rect class="cls-12" x="89.6" y="97.8" width="9.63" height="9.63"/><rect class="cls-12" x="105.23" y="97.8" width="9.63" height="9.63"/><rect class="cls-12" x="120.86" y="97.8" width="9.63" height="9.63"/><rect class="cls-12" x="42.7" y="111.4" width="9.63" height="9.63"/><rect class="cls-12" x="58.33" y="111.4" width="9.63" height="9.63"/><rect class="cls-12" x="73.96" y="111.4" width="9.63" height="9.63"/><rect class="cls-12" x="89.6" y="111.4" width="9.63" height="9.63"/><rect class="cls-12" x="105.23" y="111.4" width="9.63" height="9.63"/><rect class="cls-12" x="120.86" y="111.4" width="9.63" height="9.63"/><rect class="cls-12" x="42.7" y="124.99" width="9.63" height="9.63"/><rect class="cls-12" x="58.33" y="124.99" width="9.63" height="9.63"/><rect class="cls-12" x="73.96" y="124.99" width="9.63" height="9.63"/><rect class="cls-12" x="89.6" y="124.99" width="9.63" height="9.63"/><rect class="cls-12" x="105.23" y="124.99" width="9.63" height="9.63"/><rect class="cls-12" x="120.86" y="124.99" width="9.63" height="9.63"/><rect class="cls-22" x="36.11" y="78.61" width="100.5" height="1.12"/><path class="cls-13" d="M109.87,95.74A4.92,4.92,0,1,1,105,90.83,4.91,4.91,0,0,1,109.87,95.74Z" transform="translate(-49.34 -25.76)"/><path class="cls-13" d="M170.91,95.74A4.91,4.91,0,1,1,166,90.83,4.91,4.91,0,0,1,170.91,95.74Z" transform="translate(-49.34 -25.76)"/><path class="cls-23" d="M104.88,98.35h0A3.36,3.36,0,0,1,101.53,95V82.49a3.36,3.36,0,0,1,3.35-3.35h0a3.36,3.36,0,0,1,3.35,3.35V95A3.36,3.36,0,0,1,104.88,98.35Z" transform="translate(-49.34 -25.76)"/><path class="cls-23" d="M166.07,98.35h0A3.36,3.36,0,0,1,162.72,95V82.49a3.36,3.36,0,0,1,3.35-3.35h0a3.36,3.36,0,0,1,3.35,3.35V95A3.36,3.36,0,0,1,166.07,98.35Z" transform="translate(-49.34 -25.76)"/><circle class="cls-9" cx="97.55" cy="179.28" r="41.87" transform="translate(-147.54 95.72) rotate(-45)"/><circle class="cls-11" cx="43.55" cy="150.52" r="41.87"/><circle class="cls-13" cx="43.55" cy="150.52" r="35.09"/><path class="cls-15" d="M58.45,177.35a35.09,35.09,0,0,1,64.94-18.45,35.09,35.09,0,1,0-60.33,35.83A34.88,34.88,0,0,1,58.45,177.35Z" transform="translate(-49.34 -25.76)"/><path class="cls-15" d="M92.89,150.89h0A.87.87,0,0,1,92,150V144.2a.87.87,0,0,1,.87-.87h0a.88.88,0,0,1,.88.87V150A.88.88,0,0,1,92.89,150.89Z" transform="translate(-49.34 -25.76)"/><path class="cls-15" d="M80.51,154.48h0a.87.87,0,0,1-1.19-.32l-2.91-5a.87.87,0,0,1,.32-1.19h0a.87.87,0,0,1,1.19.32l2.91,5A.88.88,0,0,1,80.51,154.48Z" transform="translate(-49.34 -25.76)"/><path class="cls-15" d="M71.58,163.79h0a.87.87,0,0,1-1.19.32l-5-2.91A.87.87,0,0,1,65,160h0a.87.87,0,0,1,1.19-.32l5,2.91A.88.88,0,0,1,71.58,163.79Z" transform="translate(-49.34 -25.76)"/><path class="cls-15" d="M68.5,176.32h0a.88.88,0,0,1-.87.87H61.81a.88.88,0,0,1-.87-.87h0a.88.88,0,0,1,.87-.88h5.82A.88.88,0,0,1,68.5,176.32Z" transform="translate(-49.34 -25.76)"/><path class="cls-15" d="M72.09,188.7h0a.87.87,0,0,1-.32,1.19l-5,2.91a.87.87,0,0,1-1.19-.32h0a.87.87,0,0,1,.32-1.19l5-2.91A.88.88,0,0,1,72.09,188.7Z" transform="translate(-49.34 -25.76)"/><path class="cls-15" d="M81.4,197.63h0a.87.87,0,0,1,.32,1.19l-2.91,5a.88.88,0,0,1-1.19.32h0A.88.88,0,0,1,77.3,203l2.91-5A.87.87,0,0,1,81.4,197.63Z" transform="translate(-49.34 -25.76)"/><path class="cls-15" d="M93.93,200.71h0a.87.87,0,0,1,.87.87v5.82a.87.87,0,0,1-.87.87h0a.88.88,0,0,1-.88-.87v-5.82A.88.88,0,0,1,93.93,200.71Z" transform="translate(-49.34 -25.76)"/><path class="cls-15" d="M106.31,197.11h0a.88.88,0,0,1,1.19.32l2.91,5a.87.87,0,0,1-.32,1.19h0a.87.87,0,0,1-1.19-.32l-2.91-5A.89.89,0,0,1,106.31,197.11Z" transform="translate(-49.34 -25.76)"/><path class="cls-15" d="M115.24,187.81h0a.87.87,0,0,1,1.19-.32l5,2.91a.88.88,0,0,1,.32,1.19h0a.88.88,0,0,1-1.19.32l-5-2.91A.87.87,0,0,1,115.24,187.81Z" transform="translate(-49.34 -25.76)"/><path class="cls-15" d="M118.32,175.28h0a.87.87,0,0,1,.87-.87H125a.87.87,0,0,1,.87.87h0a.88.88,0,0,1-.87.88h-5.82A.88.88,0,0,1,118.32,175.28Z" transform="translate(-49.34 -25.76)"/><path class="cls-15" d="M114.72,162.9h0a.89.89,0,0,1,.32-1.2l5-2.9a.87.87,0,0,1,1.19.32h0a.87.87,0,0,1-.32,1.19l-5,2.91A.89.89,0,0,1,114.72,162.9Z" transform="translate(-49.34 -25.76)"/><path class="cls-15" d="M105.42,154h0a.87.87,0,0,1-.32-1.19l2.91-5a.87.87,0,0,1,1.19-.32h0a.88.88,0,0,1,.32,1.19l-2.91,5A.88.88,0,0,1,105.42,154Z" transform="translate(-49.34 -25.76)"/><rect class="cls-17" x="42.51" y="129.53" width="3.3" height="21.85" rx="1.55"/><path class="cls-17" d="M91.66,175.87h0a2,2,0,0,1,2-2h12.43a2,2,0,0,1,2,2h0a2,2,0,0,1-2,2H93.66A2,2,0,0,1,91.66,175.87Z" transform="translate(-49.34 -25.76)"/><path class="cls-23" d="M97.38,175.9a3.64,3.64,0,1,1-3.63-3.64A3.63,3.63,0,0,1,97.38,175.9Z" transform="translate(-49.34 -25.76)"/><path class="cls-11" d="M95.59,175.92A1.92,1.92,0,1,1,93.67,174,1.91,1.91,0,0,1,95.59,175.92Z" transform="translate(-49.34 -25.76)"/><ellipse class="cls-3" cx="320.88" cy="428.29" rx="56.86" ry="12.64"/><path class="cls-24" d="M418.79,337.66h0a.61.61,0,0,1-.05.12h0l-.06.1h0l-.07.09h0l-.08.07h0l-.09.06h0l-.09,0-.08,0h-.08l-.18,0h-.09l-.08,0h0a.51.51,0,0,1-.16-.09h0c-.7-.6-.66-3.36-.9-4.86,0-.1,0-.19,0-.28v0c0-.08,0-.16,0-.24v0c0-.08,0-.15,0-.21v0a1.16,1.16,0,0,0,0-.18v0a.94.94,0,0,1,0-.16v0c0-.05,0-.09,0-.14h0a.34.34,0,0,0,0-.12v0l0-.1h0a.56.56,0,0,0-.05-.08h0a.44.44,0,0,0-.12-.16h0l0,0H416l0,0,0,0a34.05,34.05,0,0,0-.13,5.48,11.46,11.46,0,0,1-.13,3.6h0l-.06.13h0l-.06.11v0a.7.7,0,0,1-.15.19h0l-.07.06h0l-.07,0,0,0-.07,0h-.31l-.1,0h0a.66.66,0,0,1-.22-.15h0l-.06-.06h0c-.52-.64-.61-2.28-.73-3.87v-.45c0-.06,0-.13,0-.19-.19-2.2.16-4.31-.37-4.33s-.84,8.11-.9,8.71a6.07,6.07,0,0,1-.43,2.09h0l-.06.1h0l-.05.07,0,0,0,.06,0,0-.07.06h0l-.08.05h0l-.07,0h0l-.06,0h-.27l-.07,0h0l-.07,0h0l-.08-.05h0l-.08-.06v0l-.06-.05v0a1.09,1.09,0,0,1-.13-.17h0a5.13,5.13,0,0,1-.4-2.21c0-.91,0-3.45.15-5.56s.22-2.8-.11-2.88h0c-.38.26-1.37,4.77-1.69,6.46a5.8,5.8,0,0,1-.94,2.46h0a1.12,1.12,0,0,1-.25.24h0l-.06,0h0l-.05,0h0l-.05,0H407l-.08,0h-.33l-.06,0h0l-.09,0-.07,0,0,0,0,0,0,0-.05-.06h0c-.62-.91.19-3.8.56-5.54a44.18,44.18,0,0,0,1.08-6.59c0-1.36.23-2.6-.48-2.48l-.37,0a4.82,4.82,0,0,0-2.17,1.58,3.94,3.94,0,0,1-2.85,1.06c-.41,0-.75-.15-.8-.41h0v-.06h0v-.05h0s0,0,0-.06h0l0,0v0l0,0v0l0-.06h0a.43.43,0,0,0,0-.07h0l.05-.07h0l.06-.07v0l.07-.07,0,0,.07-.08,0,0,.09-.08h0l.11-.09v0l.12-.09h0l.14-.11h0l.18-.14a14.18,14.18,0,0,0,4.17-5.14c.63-1.53.89-2.56,2.62-3,.56-.16.39-13,.29-14.89s7.73-1.1,7.67.43-1.84,14.73-1.07,15.36,1.12,1.37,1.63,4c.25,1.32.56,3.87.79,6,0,0,.46,4,.47,5.57A6.6,6.6,0,0,1,418.79,337.66Z" transform="translate(-49.34 -25.76)"/><path class="cls-25" d="M382,235.2s19.68-3.7,28,20.11c7,20.23,10.35,23.1,9.72,33.66s-2.33,29.35-2.33,29.35l-9.55-1.66-2-38.25a1.83,1.83,0,0,0-.48-1.13C401.62,273.31,376.57,245.61,382,235.2Z" transform="translate(-49.34 -25.76)"/><path class="cls-17" d="M365,458.38a5.23,5.23,0,0,1-4.26,3.59c-4.86.58-27.75-2.06-28.94-7.77a7.51,7.51,0,0,1-.18-1.34c-.31-4.59,3.61-5.76,8-5.3,4.76.52,11.82-.58,11.82-.58l14.21,2.5A17.91,17.91,0,0,1,365,458.38Z" transform="translate(-49.34 -25.76)"/><path class="cls-26" d="M365,458.38a5.23,5.23,0,0,1-4.26,3.59c-4.86.58-27.75-2.06-28.94-7.77a7.51,7.51,0,0,1-.18-1.34,30.74,30.74,0,0,1,4.24,2.21,40.51,40.51,0,0,0,16.07,4,54.16,54.16,0,0,0,9.18-.35A31.23,31.23,0,0,1,365,458.38Z" transform="translate(-49.34 -25.76)"/><path class="cls-17" d="M408.76,454.35a5.2,5.2,0,0,1-4.26,3.59c-4.86.59-27.75-2.06-28.94-7.77a8.51,8.51,0,0,1-.19-1.33c-.3-4.59,3.62-5.77,8-5.3,4.76.51,11.81-.58,11.81-.58l14.22,2.5A18,18,0,0,1,408.76,454.35Z" transform="translate(-49.34 -25.76)"/><path class="cls-26" d="M408.76,454.35a5.2,5.2,0,0,1-4.26,3.59c-4.86.59-27.75-2.06-28.94-7.77a8.51,8.51,0,0,1-.19-1.33,30.3,30.3,0,0,1,4.25,2.21,40.68,40.68,0,0,0,16.07,4,53,53,0,0,0,9.17-.36A33.62,33.62,0,0,1,408.76,454.35Z" transform="translate(-49.34 -25.76)"/><path class="cls-27" d="M410.32,445.56l-16.88-2.24c1.9-12.13-5.52-44.89-9.06-56.93-1.51-5.17-4.63-19.3-7.71-33.73C374.8,343.89,373,335,371.5,328L370.08,321c-.93-4.54-1.5-7.36-1.5-7.36l28.77,5.61s.33,3.5.89,9c1.68,16.42,5.37,50.47,8,59.25C409.75,399.16,410.32,445.56,410.32,445.56Z" transform="translate(-49.34 -25.76)"/><path class="cls-23" d="M389.07,320.15a81.07,81.07,0,0,1-1.25,8.93c-1.47,7.7-4.56,18.33-10.78,23.26-.12.1-.25.2-.37.32-8.32,7.57-8.34,41.4-8.34,41.4s1.05,47.21-2.56,56.22l-15.55-3.2s-1.68-59.91-2.25-66.76c-.47-5.74-.37-38.7.55-52.71a40.25,40.25,0,0,1,.61-5.61l20.95-1Z" transform="translate(-49.34 -25.76)"/><path class="cls-26" d="M398.24,328.23c-1.48.21-3,.33-4.45.46-2,.18-4,.35-6,.39a32.5,32.5,0,0,1-5.66-.29c-1.53-.22-3-.58-4.56-.77a33.58,33.58,0,0,0-6.1-.07c-.33,0-.65.05-1,.06-3.3.22-6.6.48-9.92.55-3.5.08-8.43.41-12.07-.95a40.25,40.25,0,0,1,.61-5.61l20.95-1c-.93-4.54-1.5-7.36-1.5-7.36l28.77,5.61S397.68,322.78,398.24,328.23Z" transform="translate(-49.34 -25.76)"/><path class="cls-24" d="M365.36,222.58l.79,23.41,17.78,3.72s-3.41-25.29.65-36.46Z" transform="translate(-49.34 -25.76)"/><path class="cls-28" d="M365.54,227.74s11-3.37,14-9c0,0-3.12,10.55-14,10.73Z" transform="translate(-49.34 -25.76)"/><path class="cls-24" d="M362,181.22s-8.05,14.47-6.9,29.71,9.1,20.21,19.57,15.89,13.57-23.7,10.9-33.3S373.49,177.31,362,181.22Z" transform="translate(-49.34 -25.76)"/><path class="cls-24" d="M275.06,206.34c0-.05,0-.09.05-.13a1.22,1.22,0,0,1,.55-.85,1.08,1.08,0,0,1,1.26-.2l.12-.23a1.34,1.34,0,0,1,.37-2,1.2,1.2,0,0,1,1.35-.23l.24-.17a1.29,1.29,0,0,1,.57-1.58c.94-.74,1.63-.26,2.39.68h.13c.37,0-.71-1.21-2.41-4.06s-4.07-6.07-2.53-7.07c1.21-.78,3.09,1.94,5,4.94,1.34,2.11,3.6,5.65,4.62,7,.81,1.1,1.4,2.63,1.94,2.88a6.45,6.45,0,0,1,.62-.61c.5-.38.53-2.08.92-3.23.57-1.65,1.49-2.88,2.45-3.12s1.78-.22,1.09,1.95c0,.11-.07.22-.11.34h0l-.12.37-.09.3h0a18.25,18.25,0,0,0-.34,7.66c.47,2,.94,3.28-.48,5-.46.57,9.07,13.68,10.54,15.54s-6.36,6.11-7.41,4.49-9.63-15.85-10.88-16-2.15-.59-4.59-2.93C279.09,214.08,274.46,208.44,275.06,206.34Z" transform="translate(-49.34 -25.76)"/><path class="cls-25" d="M367.17,235.07l-49.32,2.44-22.54-19.19-7.43,4.32s11.92,23.71,19.08,28,51.29,14.81,51.29,14.81Z" transform="translate(-49.34 -25.76)"/><path class="cls-25" d="M396.41,286c-2,8.24.93,27.17,2,33.56a3,3,0,0,1-1.74,3.22c-4.53,2-10.71,2.9-17.16,3.26A181.65,181.65,0,0,1,350,324.67a3,3,0,0,1-2.6-3c.13-12.24.75-63.64,1.78-74.26,1.18-12.07,18-12.37,18-12.37,9.05-1.94,15.73-1.77,20.54-.58,6.27,1.55,9.36,4.86,10.38,7.55C399.43,245.58,398.85,276,396.41,286Z" transform="translate(-49.34 -25.76)"/><path class="cls-26" d="M396.41,286c-2,8.24.93,27.17,2,33.56a3,3,0,0,1-1.74,3.22c-4.53,2-10.71,2.9-17.16,3.26a17,17,0,0,1,3-3.94c4.56-5.53,4.92-13.26,5.67-20.38a130.19,130.19,0,0,1,2.75-16.3A119.49,119.49,0,0,0,393.81,272c.73-6.16.06-12.38-.6-18.53-.52-5-1.12-10.08-3-14.73-.4-1-1.75-2.72-2.47-4.22,6.27,1.55,9.36,4.86,10.38,7.55C399.43,245.58,398.85,276,396.41,286Z" transform="translate(-49.34 -25.76)"/><path class="cls-29" d="M388.11,185.5c2.43,3.89,1,9-2.82,11.56-3.62,2.43-10.07,4.28-21.23,1.33-21.29-5.63-15.81-22.82-15.81-22.82a53.31,53.31,0,0,0,11.62,6.19s-5.69-4.11-5.64-10.28c0,0,5.64,4.44,17,6.83C379.39,180,385.47,181.3,388.11,185.5Z" transform="translate(-49.34 -25.76)"/><path class="cls-29" d="M388.11,185.5s13.72,11.8-.94,30.82S350.22,177.66,388.11,185.5Z" transform="translate(-49.34 -25.76)"/><path class="cls-24" d="M375.56,210.44a4.07,4.07,0,1,1-3.58-4.5A4.08,4.08,0,0,1,375.56,210.44Z" transform="translate(-49.34 -25.76)"/></g></g></svg>